<svg width="315" height="315" viewBox="0 0 315 315" fill="none" xmlns="http://www.w3.org/2000/svg">
<g clip-path="url(#clip0_103_15769)">
<path d="M13.9697 306.015C23.7883 315.155 36.5123 315.614 48.8115 314.491C50.529 314.335 52.2342 314.151 53.9237 313.953C53.9339 313.949 53.9473 313.951 53.9577 313.947C54.0389 313.937 54.1202 313.927 54.1979 313.921C54.5466 313.879 54.8955 313.837 55.2409 313.795L55.1593 313.996L54.9032 314.62C54.9952 314.411 55.0872 314.207 55.1793 313.998C55.2063 313.935 55.2367 313.872 55.2636 313.81C58.4498 306.645 61.6099 299.217 62.4159 291.036C63.2491 282.544 60.9075 272.928 55.1239 268.755C54.3653 268.209 53.5621 267.774 52.729 267.459C52.3831 267.323 52.0325 267.213 51.6779 267.115C49.5088 266.493 47.2505 266.628 45.1353 267.507C43.0201 268.387 41.1243 269.978 39.6428 272.118C38.1614 274.258 37.1477 276.869 36.7061 279.683C36.2645 282.497 36.4109 285.412 37.1302 288.129C32.2266 281.631 33.1414 271.091 34.8328 262.282C36.5276 253.473 38.5792 243.671 35.1323 235.758C33.2161 231.354 29.8466 228.622 26.0651 227.521C25.949 227.489 25.8332 227.457 25.717 227.429C21.2114 226.249 16.5274 227.31 12.6006 230.398C5.37 236.286 1.65629 247.45 0.450977 258.385C-1.49101 275.983 2.80663 295.622 13.9697 306.015Z" fill="#F2F2F2"/>
<path d="M17.1398 277.806C17.4248 281.687 18.1464 285.494 19.2817 289.107C20.328 292.304 21.7383 295.28 23.4658 297.938C26.9947 303.424 31.6609 307.548 36.7285 310.296C40.6033 312.347 44.6631 313.756 48.8115 314.491C50.5289 314.335 52.2342 314.151 53.9237 313.953C53.9339 313.949 53.9473 313.951 53.9576 313.947C54.0388 313.937 54.1202 313.927 54.1979 313.921C54.5466 313.879 54.8955 313.837 55.2409 313.794L55.1593 313.996L54.9032 314.62C54.9952 314.411 55.0872 314.206 55.1792 313.997C55.2063 313.935 55.2366 313.872 55.2636 313.81C52.1535 309.805 49.8315 304.896 48.4921 299.494C47.1526 294.091 46.8347 288.353 47.5651 282.759C48.3294 277.204 50.0988 271.962 52.7289 267.458C52.383 267.323 52.0324 267.212 51.6779 267.115C50.6783 268.881 49.8015 270.757 49.0577 272.723C46.3889 279.732 45.5375 287.666 46.6294 295.349C47.6446 302.302 50.1738 308.736 53.92 313.896C53.592 313.866 53.2608 313.831 52.9367 313.793C46.7973 313.121 40.6704 311.416 35.1019 307.922C30.3421 305.008 26.2097 300.627 23.0688 295.164C19.6963 289.153 18.2103 281.924 17.955 274.576C17.6843 266.71 18.4742 258.705 19.8634 251.055C21.282 243.213 23.4379 235.624 26.2831 228.458C26.3468 228.296 26.3596 228.108 26.319 227.933C26.2784 227.759 26.1875 227.611 26.065 227.521C25.963 227.432 25.8379 227.399 25.7169 227.429C25.6578 227.449 25.6029 227.486 25.5564 227.537C25.5099 227.589 25.473 227.653 25.4484 227.726C25.0974 228.611 24.753 229.497 24.4216 230.393C21.6619 237.853 19.6301 245.728 18.373 253.836C17.1525 261.658 16.5011 269.841 17.1398 277.806Z" fill="white"/>
<path d="M308.683 270.823H146.295C144.62 270.821 143.014 269.96 141.83 268.43C140.646 266.899 139.98 264.824 139.978 262.66V8.16311C139.98 5.99887 140.646 3.92396 141.83 2.39361C143.014 0.863257 144.62 0.00243638 146.295 0H308.683C310.358 0.00243638 311.963 0.863257 313.148 2.39361C314.332 3.92396 314.998 5.99887 315 8.16311V262.66C314.998 264.824 314.332 266.899 313.148 268.43C311.963 269.96 310.358 270.821 308.683 270.823ZM146.295 0.960366C144.817 0.962526 143.4 1.72208 142.355 3.07238C141.31 4.42269 140.723 6.25349 140.721 8.16311V262.66C140.723 264.57 141.31 266.4 142.355 267.751C143.4 269.101 144.817 269.861 146.295 269.863H308.683C310.161 269.861 311.577 269.101 312.622 267.751C313.667 266.4 314.255 264.57 314.257 262.66V8.16311C314.255 6.25349 313.667 4.42269 312.622 3.07238C311.577 1.72208 310.161 0.962526 308.683 0.960366H146.295Z" fill="#3F3D56"/>
<path d="M314.629 19.9707H140.35V20.9311H314.629V19.9707Z" fill="#3F3D56"/>
<path d="M148.896 14.4056C150.538 14.4056 151.869 12.6857 151.869 10.5641C151.869 8.44254 150.538 6.72266 148.896 6.72266C147.254 6.72266 145.923 8.44254 145.923 10.5641C145.923 12.6857 147.254 14.4056 148.896 14.4056Z" fill="#3F3D56"/>
<path d="M158.186 14.4056C159.828 14.4056 161.159 12.6857 161.159 10.5641C161.159 8.44254 159.828 6.72266 158.186 6.72266C156.544 6.72266 155.213 8.44254 155.213 10.5641C155.213 12.6857 156.544 14.4056 158.186 14.4056Z" fill="#3F3D56"/>
<path d="M167.476 14.4056C169.118 14.4056 170.449 12.6857 170.449 10.5641C170.449 8.44254 169.118 6.72266 167.476 6.72266C165.834 6.72266 164.503 8.44254 164.503 10.5641C164.503 12.6857 165.834 14.4056 167.476 14.4056Z" fill="#3F3D56"/>
<path d="M283.511 58.1019H167.573C166.292 58.1019 165.063 57.4443 164.157 56.2736C163.251 55.1029 162.742 53.5151 162.742 51.8596C162.742 50.204 163.251 48.6162 164.157 47.4455C165.063 46.2749 166.292 45.6172 167.573 45.6172H283.511C284.792 45.6172 286.021 46.2749 286.927 47.4455C287.833 48.6162 288.342 50.204 288.342 51.8596C288.342 53.5151 287.833 55.1029 286.927 56.2736C286.021 57.4443 284.792 58.1019 283.511 58.1019ZM167.573 46.5776C166.489 46.5776 165.449 47.1341 164.682 48.1246C163.916 49.1152 163.485 50.4587 163.485 51.8596C163.485 53.2604 163.916 54.6039 164.682 55.5945C165.449 56.5851 166.489 57.1416 167.573 57.1416H283.511C284.595 57.1416 285.635 56.5851 286.401 55.5945C287.168 54.6039 287.598 53.2604 287.598 51.8596C287.598 50.4587 287.168 49.1152 286.401 48.1246C285.635 47.1341 284.595 46.5776 283.511 46.5776H167.573Z" fill="#3F3D56"/>
<path d="M210.953 145.976H165.246C163.572 145.974 161.966 145.113 160.782 143.582C159.597 142.052 158.931 139.977 158.929 137.813V89.3145C158.931 87.1502 159.597 85.0753 160.782 83.545C161.966 82.0146 163.572 81.1538 165.246 81.1514H210.953C212.628 81.1538 214.233 82.0146 215.418 83.545C216.602 85.0753 217.268 87.1502 217.27 89.3145V137.813C217.268 139.977 216.602 142.052 215.418 143.582C214.233 145.113 212.628 145.974 210.953 145.976ZM165.246 82.1117C163.769 82.1139 162.352 82.8734 161.307 84.2238C160.262 85.5741 159.674 87.4049 159.672 89.3145V137.813C159.674 139.723 160.262 141.553 161.307 142.904C162.352 144.254 163.769 145.014 165.246 145.016H210.953C212.431 145.014 213.847 144.254 214.892 142.904C215.937 141.553 216.525 139.723 216.527 137.813V89.3145C216.525 87.4049 215.937 85.5741 214.892 84.2238C213.847 82.8734 212.431 82.1139 210.953 82.1117H165.246Z" fill="#3F3D56"/>
<path d="M289.731 83.5518H244.025C240.741 83.5518 238.079 86.9915 238.079 91.2347V139.733C238.079 143.976 240.741 147.416 244.025 147.416H289.731C293.015 147.416 295.677 143.976 295.677 139.733V91.2347C295.677 86.9915 293.015 83.5518 289.731 83.5518Z" fill="#F2F2F2"/>
<path d="M210.953 236.25H165.246C163.572 236.248 161.966 235.387 160.782 233.857C159.597 232.327 158.931 230.252 158.929 228.087V179.589C158.931 177.425 159.597 175.35 160.782 173.819C161.966 172.289 163.572 171.428 165.246 171.426H210.953C212.628 171.428 214.233 172.289 215.418 173.819C216.602 175.35 217.268 177.425 217.27 179.589V228.087C217.268 230.252 216.602 232.327 215.418 233.857C214.233 235.387 212.628 236.248 210.953 236.25ZM165.246 172.386C163.769 172.388 162.352 173.148 161.307 174.498C160.262 175.848 159.674 177.679 159.672 179.589V228.087C159.674 229.997 160.262 231.828 161.307 233.178C162.352 234.528 163.769 235.288 165.246 235.29H210.953C212.431 235.288 213.847 234.528 214.892 233.178C215.937 231.828 216.525 229.997 216.527 228.087V179.589C216.525 177.679 215.937 175.848 214.892 174.498C213.847 173.148 212.431 172.388 210.953 172.386H165.246Z" fill="#3F3D56"/>
<path d="M289.731 173.826H244.025C240.741 173.826 238.079 177.266 238.079 181.509V230.008C238.079 234.251 240.741 237.691 244.025 237.691H289.731C293.015 237.691 295.677 234.251 295.677 230.008V181.509C295.677 177.266 293.015 173.826 289.731 173.826Z" fill="#F2F2F2"/>
<path d="M176.726 134.246C176.717 134.246 176.709 134.246 176.701 134.245L171.502 133.997C171.34 133.99 171.185 133.908 171.066 133.766C170.947 133.624 170.872 133.43 170.855 133.222C170.497 129.097 169.024 108.074 175.193 99.3369C176.066 98.0753 177.146 97.0806 178.353 96.4251C179.561 95.7697 180.866 95.4698 182.175 95.5472C182.228 95.5516 182.281 95.537 182.328 95.5052C182.375 95.4734 182.415 95.4255 182.443 95.3667L183.701 92.811C183.77 92.6726 183.867 92.5618 183.983 92.4913C184.098 92.4207 184.226 92.3933 184.352 92.412C185.361 92.5695 190.505 93.3133 192.667 92.5041C192.795 92.4555 192.931 92.4565 193.058 92.5071C193.185 92.5576 193.298 92.6554 193.382 92.7883L195.035 95.3983C195.063 95.4456 195.1 95.4833 195.142 95.5084C195.184 95.5336 195.23 95.5453 195.276 95.5428C196.117 95.521 199.064 95.7313 201.643 99.4595C204.436 103.496 207.319 112.605 205.19 133.07C205.167 133.281 205.087 133.473 204.964 133.613C204.84 133.753 204.682 133.83 204.517 133.831H200.423C200.26 133.83 200.103 133.754 199.981 133.617C199.858 133.479 199.777 133.29 199.753 133.082L198.415 121.156C198.404 121.058 198.365 120.969 198.306 120.906C198.246 120.844 198.171 120.813 198.094 120.819C198.018 120.825 197.946 120.868 197.893 120.939C197.839 121.011 197.809 121.105 197.807 121.204L197.715 126.804C197.712 126.97 197.673 127.131 197.602 127.27C197.531 127.408 197.43 127.517 197.313 127.585C195.853 128.414 188.141 132.304 179.617 127.432C179.501 127.365 179.403 127.258 179.332 127.123C179.261 126.988 179.22 126.83 179.214 126.667L179.047 121.58C179.043 121.48 179.011 121.386 178.957 121.316C178.902 121.246 178.829 121.205 178.752 121.202C178.675 121.198 178.6 121.233 178.542 121.297C178.484 121.362 178.447 121.453 178.438 121.552L177.399 133.469C177.379 133.682 177.3 133.879 177.176 134.022C177.052 134.166 176.892 134.245 176.726 134.246Z" fill="#38B6FF"/>
<path d="M198.232 222.103H198.228L177.856 221.936C177.708 221.935 177.566 221.864 177.455 221.736C177.345 221.608 177.274 221.433 177.257 221.243L175.208 198.735C175.195 198.59 175.142 198.456 175.059 198.357C174.976 198.258 174.868 198.201 174.755 198.197C173.138 198.128 169.29 197.652 168.493 194.709C167.783 192.088 169.725 188.222 174.266 183.218C174.343 183.132 174.435 183.073 174.535 183.046C174.634 183.019 174.737 183.024 174.835 183.062C174.932 183.099 175.021 183.168 175.093 183.261C175.164 183.354 175.217 183.469 175.245 183.595L177.602 194.104C177.631 194.23 177.69 194.341 177.771 194.42C177.853 194.499 177.951 194.543 178.053 194.544L197.368 194.712C197.469 194.713 197.568 194.672 197.65 194.595C197.732 194.518 197.792 194.409 197.822 194.284L200.445 183.5C200.474 183.38 200.525 183.27 200.594 183.181C200.663 183.092 200.748 183.025 200.841 182.987C200.934 182.949 201.032 182.94 201.129 182.962C201.225 182.983 201.315 183.035 201.393 183.111C203.183 184.878 208.948 190.942 207.999 194.82C207.502 196.851 205.261 197.984 201.336 198.185C201.224 198.19 201.116 198.248 201.033 198.347C200.951 198.445 200.898 198.579 200.885 198.724L198.835 221.409C198.818 221.6 198.747 221.777 198.636 221.905C198.524 222.033 198.381 222.103 198.232 222.103Z" fill="#38B6FF"/>
<path d="M287.502 127.322C281.1 128.914 275.064 132.369 269.849 137.424C269.585 136.517 269.088 135.755 268.441 135.264C268 134.91 267.518 134.649 267.013 134.489C266.554 134.337 266.113 134.698 265.707 135.218C265.241 135.884 264.85 136.632 264.546 137.44C257.55 131.235 246.938 127.275 246.938 127.275V126.034C246.947 125.742 246.97 125.45 247.007 125.162C247.043 124.828 247.088 124.534 247.145 124.173C248.046 118.255 251.605 104.732 251.605 104.732H255.63L263.433 106.826L272.211 106.132L281.052 103.755L282.199 103.444C284.11 105.383 286.28 118.957 287.133 124.735C287.241 125.468 287.325 126.073 287.388 126.519C287.463 127.023 287.502 127.322 287.502 127.322Z" fill="white"/>
<path d="M263.488 186.896C263.488 186.896 261.618 187.5 258.719 197.647C255.82 207.794 254.793 220.904 254.793 220.904C254.793 220.904 253.163 224.471 260.121 224.71C260.121 224.71 259.562 227.066 263.488 226.704C267.414 226.342 266.849 226.346 266.849 226.346C266.849 226.346 269.373 224.292 270.495 224.654C271.617 225.015 272.318 225.138 273.533 226.465C274.747 227.793 278.63 227.252 278.676 226.227C278.707 225.723 278.707 225.217 278.676 224.713C278.676 224.713 284.613 225.198 283.491 219.64C282.369 214.082 281.434 204.96 281.434 204.96C281.434 204.96 278.396 187.142 274.935 186.9C271.473 186.657 263.488 186.896 263.488 186.896Z" fill="white"/>
<path d="M71.5844 169.79C77.7412 169.79 82.7323 163.341 82.7323 155.385C82.7323 147.429 77.7412 140.979 71.5844 140.979C65.4276 140.979 60.4365 147.429 60.4365 155.385C60.4365 163.341 65.4276 169.79 71.5844 169.79Z" fill="#2F2E41"/>
<path d="M72.5208 169.818C77.5614 169.818 81.6476 164.538 81.6476 158.024C81.6476 151.511 77.5614 146.23 72.5208 146.23C67.4802 146.23 63.394 151.511 63.394 158.024C63.394 164.538 67.4802 169.818 72.5208 169.818Z" fill="#FFB8B8"/>
<path d="M107.28 193.896C107.135 194.085 107.001 194.288 106.881 194.503L88.4639 193.662L86.3575 188.558L79.98 191.659L83.0294 201.164C83.2758 201.932 83.7083 202.576 84.262 202.999C84.8156 203.423 85.4606 203.602 86.1001 203.512L106.941 200.555C107.425 201.365 108.089 201.965 108.843 202.276C109.598 202.587 110.408 202.593 111.166 202.295C111.923 201.996 112.593 201.406 113.085 200.604C113.577 199.802 113.868 198.825 113.92 197.804C113.972 196.783 113.782 195.765 113.376 194.886C112.969 194.008 112.365 193.31 111.644 192.886C110.924 192.462 110.12 192.331 109.34 192.512C108.56 192.692 107.842 193.175 107.28 193.896Z" fill="#FFB8B8"/>
<path d="M77.5267 196.249C77.292 196.113 77.0828 195.913 76.9133 195.663C76.7438 195.413 76.6181 195.119 76.5447 194.8L73.9795 183.675C73.4224 182.134 73.3609 180.371 73.8084 178.772C74.2559 177.172 75.1759 175.868 76.3667 175.144C77.5574 174.42 78.9218 174.335 80.1606 174.909C81.3994 175.483 82.4116 176.668 82.9752 178.205L87.9443 187.921C88.0861 188.198 88.18 188.512 88.2195 188.84C88.2591 189.169 88.2435 189.504 88.1736 189.824C88.1038 190.144 87.9814 190.441 87.8148 190.694C87.6482 190.947 87.4414 191.151 87.2083 191.292L79.0173 196.235C78.7843 196.376 78.5305 196.45 78.2732 196.452C78.016 196.455 77.7613 196.385 77.5267 196.249Z" fill="#CCCCCC"/>
<path d="M95.6661 309.203L99.6674 306.388L93.1701 285.105L87.2646 289.26L95.6661 309.203Z" fill="#FFB8B8"/>
<path d="M93.9346 308.232L101.814 302.689C102.474 302.226 103.198 301.934 103.945 301.831C104.691 301.729 105.446 301.817 106.166 302.092C106.886 302.367 107.558 302.822 108.142 303.432C108.726 304.041 109.211 304.794 109.57 305.646L109.659 305.857L96.7572 314.933L93.9346 308.232Z" fill="#2F2E41"/>
<path d="M51.6366 309.225H56.192L58.3595 286.519L51.6355 286.519L51.6366 309.225Z" fill="#FFB8B8"/>
<path d="M50.4746 307.304L59.4464 307.304C60.1972 307.304 60.9411 307.495 61.6348 307.866C62.3284 308.237 62.9587 308.782 63.4897 309.468C64.0206 310.154 64.4417 310.968 64.7291 311.865C65.0164 312.761 65.1643 313.722 65.1643 314.692V314.932L50.4749 314.933L50.4746 307.304Z" fill="#2F2E41"/>
<path d="M79.9455 208.446L81.4318 231.495L98.012 295.77C98.0772 296.023 98.101 296.29 98.0818 296.556C98.0627 296.821 98.001 297.078 97.9008 297.311C97.8005 297.544 97.6639 297.747 97.4996 297.908C97.3352 298.069 97.1467 298.184 96.9461 298.246L91.8645 299.809C91.5391 299.909 91.1971 299.865 90.8938 299.683C90.5904 299.5 90.3435 299.191 90.193 298.805L68.9956 244.471C68.9265 244.294 68.8167 244.149 68.6812 244.056C68.5457 243.963 68.3912 243.926 68.239 243.951C68.0867 243.976 67.9441 244.061 67.8308 244.195C67.7175 244.328 67.639 244.504 67.606 244.698L58.2776 299.612C58.2049 300.04 58.0214 300.423 57.7573 300.697C57.4933 300.972 57.1646 301.121 56.8257 301.121H52.0983C51.9014 301.122 51.7065 301.071 51.5248 300.973C51.3431 300.875 51.1784 300.731 51.0401 300.55C50.9019 300.369 50.793 300.154 50.7197 299.918C50.6464 299.682 50.6102 299.429 50.6132 299.175C51.0464 261.098 49.6173 217.71 60.994 210.847L62.852 204.604L79.9455 208.446Z" fill="#2F2E41"/>
<path d="M62.317 206.239L60.4012 191.268C60.0841 188.813 60.2504 186.294 60.8848 183.944C61.5192 181.594 62.6012 179.488 64.0312 177.82C65.4289 176.168 67.126 174.998 68.9659 174.417C70.8057 173.836 72.7292 173.863 74.559 174.495C74.6676 174.532 74.7763 174.571 74.8851 174.611C77.1365 175.444 79.1358 177.149 80.6129 179.498C82.09 181.846 82.9738 184.723 83.1448 187.742C83.5104 194.243 83.1833 203.676 79.5484 211.688L79.4778 211.844L62.317 206.239Z" fill="#CCCCCC"/>
<path d="M81.6001 151.756C79.5145 153.613 77.039 154.602 74.5061 154.589C75.4096 155.399 76.4382 155.945 77.5211 156.192C74.1533 157.125 70.6727 157.151 67.297 156.266C66.5466 156.111 65.8226 155.789 65.1567 155.316C64.8248 155.077 64.5357 154.75 64.3081 154.356C64.0805 153.963 63.9195 153.512 63.8356 153.033C63.6112 151.377 64.6098 149.873 65.6474 148.859C67.2362 147.33 69.0681 146.277 71.0105 145.775C72.9529 145.274 74.9574 145.336 76.8788 145.959C78.1334 146.378 79.3902 147.086 80.2051 148.388C81.02 149.69 81.2614 151.697 80.485 153.038L81.6001 151.756Z" fill="#2F2E41"/>
<path d="M71.4377 140.909C72.4957 135.389 68.7038 129.256 64.3038 129.371C59.8397 129.487 56.5546 134.7 54.2964 139.678C52.0382 144.655 49.7939 150.298 45.6483 152.441C44.2764 153.15 42.7898 153.408 41.3217 153.192C39.8536 152.976 38.45 152.292 37.2366 151.203C36.0233 150.113 35.0381 148.652 34.3695 146.949C33.7009 145.246 33.3697 143.356 33.4056 141.447C32.849 147.494 33.6202 154.037 36.6381 158.714C39.656 163.391 45.2715 165.499 49.3078 162.356C51.613 160.561 53.0865 157.44 54.3012 154.337C55.516 151.233 56.5969 147.96 58.4375 145.423C60.2782 142.885 63.1242 141.201 65.6858 142.269C66.7026 142.693 67.6148 143.519 68.6653 143.77C69.7158 144.021 71.0384 143.376 71.1819 142.008L71.4377 140.909Z" fill="#2F2E41"/>
<path d="M49.4406 240.999C49.0618 240.426 48.7849 239.752 48.6295 239.025C48.4741 238.298 48.4439 237.536 48.5411 236.792C48.6382 236.048 48.8604 235.341 49.1919 234.721C49.5234 234.1 49.9562 233.581 50.4597 233.2L58.3767 187.344L66.4079 191.603L56.1004 235.339C56.5398 236.474 56.6416 237.779 56.3864 239.005C56.1313 240.231 55.537 241.294 54.7161 241.991C53.8952 242.689 52.9048 242.973 51.9325 242.791C50.9602 242.608 50.0735 241.97 49.4406 240.999Z" fill="#FFB8B8"/>
<path d="M55.2397 193.922C55.1133 193.632 55.0367 193.311 55.0151 192.98C54.9935 192.649 55.0275 192.315 55.1147 192.003L58.1591 181.081C58.4182 179.413 59.1785 177.947 60.2731 177.003C61.3677 176.059 62.7074 175.714 63.9984 176.044C65.2893 176.375 66.4263 177.353 67.1599 178.765C67.8935 180.177 68.1638 181.907 67.9117 183.576L67.4492 195.207C67.436 195.539 67.3676 195.863 67.2486 196.158C67.1296 196.453 66.9629 196.711 66.7598 196.915C66.5566 197.119 66.3219 197.264 66.0715 197.34C65.8211 197.416 65.561 197.421 65.3088 197.356L56.4461 195.053C56.1938 194.988 55.9555 194.853 55.7473 194.658C55.5391 194.462 55.366 194.211 55.2397 193.922Z" fill="#CCCCCC"/>
<path d="M120.106 188.78L119.974 188.756L120.47 184.088C120.547 183.371 120.399 182.645 120.061 182.068C119.723 181.492 119.221 181.113 118.667 181.014L111.012 179.654C110.457 179.556 109.895 179.746 109.449 180.183C109.003 180.62 108.71 181.268 108.633 181.985L105.909 207.598C105.832 208.315 105.98 209.041 106.318 209.618C106.656 210.194 107.158 210.573 107.712 210.672L115.367 212.032C115.922 212.13 116.484 211.94 116.93 211.503C117.376 211.066 117.669 210.418 117.746 209.701L119.62 192.08L119.752 192.103L120.106 188.78Z" fill="#3F3D56"/>
<path d="M118.426 182.383L117.473 182.214C117.502 182.36 117.503 182.514 117.475 182.661C117.447 182.808 117.392 182.944 117.314 183.057C117.236 183.17 117.138 183.256 117.028 183.309C116.918 183.361 116.8 183.378 116.684 183.357L112.501 182.614C112.385 182.593 112.275 182.536 112.18 182.447C112.085 182.359 112.008 182.241 111.957 182.105C111.905 181.969 111.88 181.819 111.884 181.668C111.888 181.516 111.921 181.369 111.98 181.238L111.09 181.08C110.894 181.045 110.695 181.06 110.504 181.125C110.313 181.19 110.134 181.302 109.976 181.456C109.819 181.61 109.687 181.803 109.587 182.023C109.487 182.244 109.422 182.487 109.395 182.74L106.8 207.135C106.773 207.388 106.785 207.645 106.835 207.892C106.885 208.139 106.972 208.37 107.092 208.574C107.211 208.777 107.36 208.948 107.53 209.077C107.701 209.206 107.889 209.29 108.085 209.325L115.421 210.628C115.817 210.698 116.217 210.562 116.535 210.251C116.852 209.94 117.061 209.478 117.116 208.968L119.711 184.572C119.765 184.062 119.66 183.544 119.419 183.134C119.179 182.723 118.821 182.453 118.426 182.383Z" fill="white"/>
<path d="M113.223 202.637C115.48 202.637 117.31 200.272 117.31 197.355C117.31 194.438 115.48 192.073 113.223 192.073C110.965 192.073 109.135 194.438 109.135 197.355C109.135 200.272 110.965 202.637 113.223 202.637Z" fill="#38B6FF"/>
<path d="M112.818 199.37C112.726 199.37 112.636 199.332 112.563 199.26L112.558 199.256L111.597 198.305C111.553 198.261 111.515 198.207 111.487 198.144C111.459 198.081 111.44 198.012 111.433 197.94C111.426 197.868 111.429 197.795 111.444 197.725C111.458 197.655 111.483 197.589 111.517 197.531C111.551 197.474 111.594 197.425 111.643 197.389C111.691 197.353 111.745 197.329 111.801 197.32C111.856 197.31 111.913 197.315 111.967 197.334C112.021 197.353 112.072 197.386 112.117 197.43L112.739 198.046L114.209 195.568C114.243 195.511 114.286 195.463 114.334 195.427C114.383 195.39 114.436 195.367 114.492 195.357C114.548 195.348 114.604 195.353 114.658 195.371C114.712 195.39 114.763 195.422 114.808 195.466C114.897 195.555 114.956 195.687 114.971 195.832C114.986 195.977 114.955 196.124 114.887 196.24L113.157 199.154C113.117 199.222 113.066 199.276 113.007 199.313C112.948 199.351 112.883 199.37 112.818 199.37Z" fill="white"/>
<path d="M150.896 315H9.31764C9.21909 315 9.12458 314.95 9.05489 314.86C8.9852 314.77 8.94604 314.648 8.94604 314.52C8.94604 314.393 8.9852 314.271 9.05489 314.181C9.12458 314.091 9.21909 314.04 9.31764 314.04H150.896C150.995 314.04 151.089 314.091 151.159 314.181C151.228 314.271 151.268 314.393 151.268 314.52C151.268 314.648 151.228 314.77 151.159 314.86C151.089 314.95 150.995 315 150.896 315Z" fill="#3F3D56"/>
</g>
<defs>
<clipPath id="clip0_103_15769">
<rect width="315" height="315" fill="white"/>
</clipPath>
</defs>
</svg>
