<svg width="315" height="315" viewBox="0 0 315 315" fill="none" xmlns="http://www.w3.org/2000/svg">
<g clip-path="url(#clip0_103_15720)">
<path d="M283.672 305.172C284.865 305.25 285.524 303.706 284.621 302.806L284.532 302.434C284.544 302.404 284.555 302.374 284.567 302.344C285.774 299.347 289.862 299.367 291.058 302.369C292.12 305.034 293.471 307.703 293.804 310.52C293.953 311.764 293.886 313.031 293.621 314.251C296.109 308.589 297.418 302.405 297.418 296.187C297.418 294.625 297.335 293.062 297.168 291.504C297.03 290.229 296.84 288.962 296.593 287.707C295.262 280.921 292.379 274.458 288.221 269.06C286.222 267.921 284.555 266.141 283.548 264.008C283.187 263.238 282.903 262.41 282.769 261.567C282.997 261.598 283.627 257.988 283.455 257.766C283.772 257.265 284.34 257.015 284.686 256.526C286.408 254.093 288.78 254.518 290.019 257.824C292.664 259.216 292.69 261.524 291.067 263.743C290.034 265.155 289.892 267.066 288.986 268.578C289.079 268.702 289.176 268.823 289.269 268.947C290.979 271.233 292.458 273.689 293.704 276.269C293.352 273.401 293.872 269.946 294.759 267.719C295.768 265.182 297.66 263.044 299.326 260.851C301.327 258.215 305.431 259.365 305.783 262.706C305.787 262.738 305.79 262.771 305.793 262.803C305.546 262.948 305.304 263.103 305.067 263.266C303.716 264.197 304.183 266.379 305.783 266.637L305.82 266.643C305.73 267.571 305.577 268.493 305.353 269.398C307.491 278.012 302.876 281.15 296.288 281.291C296.142 281.368 296 281.446 295.855 281.52C296.523 283.479 297.056 285.488 297.451 287.524C297.805 289.324 298.052 291.143 298.189 292.969C298.361 295.274 298.346 297.59 298.16 299.891L298.171 299.809C298.644 297.275 299.965 294.909 301.881 293.268C304.737 290.824 308.771 289.924 311.852 287.959C313.335 287.013 315.235 288.235 314.976 290.027L314.964 290.113C314.505 290.307 314.057 290.532 313.625 290.785C313.377 290.931 313.135 291.085 312.898 291.248C311.547 292.179 312.014 294.362 313.615 294.619L313.651 294.625C313.677 294.629 313.699 294.633 313.726 294.637C312.939 296.584 311.842 298.391 310.47 299.949C309.134 307.469 303.393 308.182 297.253 305.993H297.25C296.578 309.04 295.598 312.017 294.337 314.854H283.933C283.895 314.733 283.862 314.609 283.828 314.488C284.79 314.551 285.76 314.492 286.707 314.31C285.935 313.322 285.163 312.327 284.391 311.34C284.373 311.321 284.358 311.301 284.343 311.282C283.951 310.777 283.556 310.275 283.164 309.77L283.164 309.77C283.14 308.219 283.318 306.673 283.672 305.172Z" fill="#F2F2F2"/>
<path d="M92.239 314.284C92.239 314.682 92.545 315 92.9261 315H314.232C314.613 315 314.919 314.682 314.919 314.284C314.919 313.887 314.613 313.568 314.232 313.568H92.9261C92.545 313.568 92.239 313.887 92.239 314.284Z" fill="#CCCCCC"/>
<path d="M125.82 314.695H23.9552C11.5345 314.695 1.42944 304.164 1.42944 291.22V63.0786C1.42944 50.1344 11.5345 39.6035 23.9552 39.6035H125.82C138.241 39.6035 148.346 50.1344 148.346 63.0786V291.22C148.346 304.164 138.241 314.695 125.82 314.695Z" fill="#3F3D56"/>
<path d="M148.346 123.521C147.82 123.521 147.393 123.967 147.393 124.515V156.294C147.393 156.842 147.82 157.287 148.346 157.287C148.871 157.287 149.298 156.842 149.298 156.294V124.515C149.298 123.967 148.871 123.521 148.346 123.521Z" fill="#3F3D56"/>
<path d="M146.202 63.0785V291.215C146.202 302.482 137.787 311.698 127.147 312.413H127.143C126.985 312.423 126.828 312.433 126.666 312.438C126.385 312.453 126.104 312.458 125.818 312.458C125.818 312.458 124.77 312.379 122.854 312.23C120.92 312.081 118.104 311.857 114.592 311.564C113.539 311.48 112.429 311.386 111.257 311.286C108.922 311.088 106.359 310.869 103.61 310.621C102.514 310.526 101.38 310.422 100.222 310.318C94.3042 309.787 87.6764 309.166 80.6865 308.461C79.5049 308.347 78.3137 308.227 77.113 308.103C76.7985 308.069 76.4793 308.039 76.16 308.004C71.1761 307.493 3.57373 293.877 3.57373 291.215V63.0785C3.57373 51.345 12.6982 41.8359 23.9573 41.8359H36.1264C38.0704 41.8359 39.6333 43.415 39.8 45.436C39.8143 45.57 39.8286 45.7041 39.8524 45.8382C40.205 47.8691 41.9918 49.2843 43.9739 49.2843H105.801C107.784 49.2843 109.57 47.8691 109.923 45.8382C109.947 45.7041 109.961 45.57 109.975 45.436C110.142 43.415 111.705 41.8359 113.649 41.8359H125.818C137.077 41.8359 146.202 51.345 146.202 63.0785Z" fill="white"/>
<path d="M0.952945 99.6865C0.42738 99.6865 0 100.132 0 100.68V108.625C0 109.172 0.427386 109.618 0.952945 109.618C1.4785 109.618 1.90589 109.172 1.90589 108.625V100.68C1.90589 100.132 1.4785 99.6865 0.952945 99.6865Z" fill="#3F3D56"/>
<path d="M0.952945 123.521C0.42738 123.521 0 123.967 0 124.515V139.908C0 140.455 0.427386 140.901 0.952945 140.901C1.4785 140.901 1.90589 140.455 1.90589 139.908V124.515C1.90589 123.967 1.4785 123.521 0.952945 123.521Z" fill="#3F3D56"/>
<path d="M0.952945 145.37C0.42738 145.37 0 145.816 0 146.363V161.756C0 162.304 0.427386 162.75 0.952945 162.75C1.4785 162.75 1.90589 162.304 1.90589 161.756V146.363C1.90589 145.816 1.4785 145.37 0.952945 145.37Z" fill="#3F3D56"/>
<path d="M35.7947 45.3145H17.5705C17.4715 45.3145 17.3914 45.398 17.3914 45.5011V47.6106C17.3914 47.7137 17.4715 47.7972 17.5705 47.7972H35.7947C35.8936 47.7972 35.9738 47.7137 35.9738 47.6106V45.5011C35.9738 45.398 35.8936 45.3145 35.7947 45.3145Z" fill="#E6E6E6"/>
<path d="M116.66 47.7967C117.713 47.7967 118.566 46.9074 118.566 45.8104C118.566 44.7135 117.713 43.8242 116.66 43.8242C115.607 43.8242 114.754 44.7135 114.754 45.8104C114.754 46.9074 115.607 47.7967 116.66 47.7967Z" fill="#E6E6E6"/>
<path d="M121.901 47.7967C122.954 47.7967 123.807 46.9074 123.807 45.8104C123.807 44.7135 122.954 43.8242 121.901 43.8242C120.849 43.8242 119.995 44.7135 119.995 45.8104C119.995 46.9074 120.849 47.7967 121.901 47.7967Z" fill="#E6E6E6"/>
<path d="M127.142 47.7967C128.195 47.7967 129.048 46.9074 129.048 45.8104C129.048 44.7135 128.195 43.8242 127.142 43.8242C126.09 43.8242 125.237 44.7135 125.237 45.8104C125.237 46.9074 126.09 47.7967 127.142 47.7967Z" fill="#E6E6E6"/>
<path d="M115.066 179.622H34.2324C32.9589 179.622 31.9229 178.543 31.9229 177.215C31.9229 175.888 32.9589 174.809 34.2324 174.809H115.066C116.34 174.809 117.376 175.888 117.376 177.215C117.376 178.543 116.34 179.622 115.066 179.622Z" fill="#E6E6E6"/>
<path d="M74.9393 272.889C93.4343 272.889 108.428 257.264 108.428 237.99C108.428 218.715 93.4343 203.09 74.9393 203.09C56.4442 203.09 41.4509 218.715 41.4509 237.99C41.4509 257.264 56.4442 272.889 74.9393 272.889Z" fill="#38B6FF"/>
<path d="M80.2614 226.594C77.4352 226.715 74.2401 226.918 72.1512 229.178C70.3364 231.141 69.9387 234.055 71.779 236.151C73.6242 238.253 76.4931 238.537 78.6201 240.177C81.1176 242.102 80.7518 245.911 78.3349 247.735C75.4849 249.887 71.8052 248.884 69.1997 246.837C68.5321 246.312 67.8839 247.487 68.544 248.006C70.8784 249.84 73.9245 250.861 76.8107 249.983C79.4156 249.191 81.4348 246.978 81.6402 244.098C81.7382 242.724 81.3633 241.33 80.5434 240.245C79.6779 239.1 78.4313 238.395 77.1711 237.821C75.0016 236.834 71.2662 235.557 71.897 232.343C72.6615 228.448 77.2112 228.079 80.2614 227.948C81.0945 227.913 81.0988 226.559 80.2614 226.594Z" fill="white"/>
<path d="M75.0184 224.752L74.8938 254.472C74.8902 255.344 76.1893 255.345 76.1929 254.472L76.3175 224.752C76.3211 223.88 75.022 223.879 75.0184 224.752Z" fill="white"/>
<path d="M252.367 0H87.2578C81.201 0 76.2759 5.13264 76.2759 11.4447V129.357C76.2759 135.669 81.201 140.802 87.2578 140.802H252.367C258.423 140.802 263.349 135.669 263.349 129.357V11.4447C263.349 5.13264 258.423 0 252.367 0Z" fill="white"/>
<path d="M169.053 70.1096C179.257 70.1096 187.529 61.4888 187.529 50.8546C187.529 40.2204 179.257 31.5996 169.053 31.5996C158.849 31.5996 150.577 40.2204 150.577 50.8546C150.577 61.4888 158.849 70.1096 169.053 70.1096Z" fill="#38B6FF"/>
<path d="M172.558 42.2622C170.271 42.3604 167.696 42.5115 165.966 44.2853C164.533 45.7546 164.032 48.0418 165.349 49.7718C166.735 51.5932 169.041 51.9388 170.851 53.1027C171.976 53.8262 172.721 54.9221 172.746 56.3305C172.768 57.6491 172.184 58.8811 171.208 59.7075C168.813 61.7351 165.547 60.8958 163.281 59.1225C162.835 58.7736 162.403 59.5569 162.844 59.9018C164.721 61.3705 167.137 62.2235 169.472 61.5916C171.621 61.0099 173.352 59.2478 173.585 56.8933C173.831 54.4116 172.267 52.7219 170.24 51.7525C168.387 50.8664 165.136 49.9223 165.443 47.1695C165.832 43.6695 169.944 43.2771 172.558 43.1648C173.113 43.1409 173.116 42.2382 172.558 42.2622Z" fill="white"/>
<path d="M168.583 40.6254L168.479 65.391C168.477 65.9719 169.343 65.9726 169.346 65.391L169.449 40.6254C169.452 40.0445 168.586 40.0438 168.583 40.6254Z" fill="white"/>
<path d="M252.367 0H87.2578C81.201 0 76.2759 5.13264 76.2759 11.4447V129.357C76.2759 135.669 81.201 140.802 87.2578 140.802H252.367C258.423 140.802 263.349 135.669 263.349 129.357V11.4447C263.349 5.13264 258.423 0 252.367 0ZM262.194 129.357C262.194 135.008 257.788 139.599 252.367 139.599H87.2578C81.8361 139.599 77.4306 135.008 77.4306 129.357V11.4447C77.4306 5.79456 81.8361 1.20344 87.2578 1.20344H252.367C257.788 1.20344 262.194 5.79455 262.194 11.4447V129.357Z" fill="#3F3D56"/>
<path d="M150.776 11.6436H134.574C133.76 11.6436 133.096 12.3355 133.096 13.184C133.096 14.0384 133.76 14.7304 134.574 14.7304H150.776C151.59 14.7304 152.254 14.0384 152.254 13.184C152.254 12.3355 151.59 11.6436 150.776 11.6436Z" fill="#E6E6E6"/>
<path d="M177.913 11.6436H161.711C160.897 11.6436 160.233 12.3355 160.233 13.184C160.233 14.0384 160.897 14.7304 161.711 14.7304H177.913C178.727 14.7304 179.391 14.0384 179.391 13.184C179.391 12.3355 178.727 11.6436 177.913 11.6436Z" fill="#E6E6E6"/>
<path d="M205.05 11.6436H188.848C188.034 11.6436 187.37 12.3355 187.37 13.184C187.37 14.0384 188.034 14.7304 188.848 14.7304H205.05C205.864 14.7304 206.528 14.0384 206.528 13.184C206.528 12.3355 205.864 11.6436 205.05 11.6436Z" fill="#E6E6E6"/>
<path d="M231.771 80.9404H107.853C102.697 80.9404 98.5051 85.3089 98.5051 90.6823V99.4794C98.5051 104.853 102.697 109.221 107.853 109.221H231.771C236.927 109.221 241.119 104.853 241.119 99.4794V90.6823C241.119 85.3089 236.927 80.9404 231.771 80.9404Z" fill="#38B6FF"/>
<path d="M42.2526 127.259L37.5007 124.913C39.4497 127.747 41.1291 132.174 42.0282 135.697C43.5505 132.416 46.0045 128.401 48.4336 126.002L43.4114 127.349C46.5061 111.543 58.1458 100.196 71.4749 100.196V98.9922C57.5523 98.9922 45.4123 110.815 42.2526 127.259Z" fill="#3F3D56"/>
<path d="M64.1234 151.342H34.0993C32.8259 151.342 31.7898 150.262 31.7898 148.935C31.7898 147.608 32.8259 146.528 34.0993 146.528H64.1234C65.3968 146.528 66.4329 147.608 66.4329 148.935C66.4329 150.262 65.3968 151.342 64.1234 151.342Z" fill="#E6E6E6"/>
<path d="M263.852 143.502L263.55 168.076L257.683 189.981L252.992 188.158L255.075 168.079L254.801 140.907L263.852 143.502Z" fill="#FFB6B6"/>
<path d="M257.663 193.514C258.213 190.364 257.204 187.535 255.41 187.194C253.615 186.854 251.714 189.131 251.164 192.281C250.613 195.431 251.622 198.26 253.417 198.601C255.211 198.941 257.112 196.664 257.663 193.514Z" fill="#FFB6B6"/>
<path d="M256.733 114.243C256.733 114.243 266.784 114.387 266.775 119.951C266.77 123.093 266.123 151.616 264.321 168.943C262.932 182.305 260.28 185.791 260.28 185.791L253.928 170.748L256.733 114.243Z" fill="#E6E6E6"/>
<path d="M256.475 164.448H222.531C225.377 157.832 227.126 151.531 224.391 146.519L256.475 144.581C254.871 151.347 254.675 157.987 256.475 164.448Z" fill="#FFB6B6"/>
<path d="M252.29 105.816L238.806 104.847L233.226 112.115L230.397 112.651C226.157 113.455 223.138 117.398 223.327 121.885L224.427 147.947L256.657 150.396L264.379 116.458L255.08 112.6L252.29 105.816Z" fill="#E6E6E6"/>
<path d="M170.058 113.677C171.014 114.574 171.697 115.622 172.058 116.638L181.689 124.582L177.928 129.248L168.563 120.687C167.555 120.42 166.483 119.823 165.527 118.926C163.341 116.877 162.584 114.041 163.835 112.592C165.086 111.142 167.872 111.628 170.058 113.677Z" fill="#FFB6B6"/>
<path d="M238.153 120.365L201.248 146.335L174.794 127.15L178.766 119.652L199.586 132.262L218.787 116.898C225.625 110.205 234.194 111.502 238.153 120.365Z" fill="#E6E6E6"/>
<path d="M244.748 102.67C250.273 102.67 254.752 98.0024 254.752 92.2447C254.752 86.4869 250.273 81.8193 244.748 81.8193C239.223 81.8193 234.744 86.4869 234.744 92.2447C234.744 98.0024 239.223 102.67 244.748 102.67Z" fill="#FFB6B6"/>
<path d="M258.346 89.6831V91.7049L247.063 88.3954L238.605 90.2427C238.507 88.9009 238.126 87.5831 237.49 86.4157C237.932 88.288 237.982 89.7365 237.514 90.4834L236.376 90.7301C236.191 90.2066 235.833 89.7493 235.366 89.4725C235.319 89.4424 235.262 89.4183 235.21 89.4364C235.129 89.4665 235.123 89.5748 235.123 89.659C235.135 90.1043 235.146 90.5495 235.164 90.9948L231.896 91.7049V89.6831C228.76 82.3314 237.024 75.9697 245.123 75.9037C248.778 75.874 252.081 77.4441 254.477 79.9352C256.868 82.4324 258.346 85.8742 258.346 89.6831Z" fill="#2F2E41"/>
<path d="M264.692 113.39L263.84 113.316C263.901 113.026 263.962 112.739 264.017 112.449C264.489 110.012 263.45 106.91 263.373 104.569C262.972 107.043 263.658 110.086 262.949 112.434C262.87 112.695 259.787 114.379 259.702 114.637C256.29 113.336 252.737 109.181 248.714 111.608C246.334 113.043 243.619 112.414 240.917 111.757C240.249 111.594 240.156 108.153 239.494 108.018C238.309 107.775 236.568 110.904 235.452 111.026L240.071 92.373C240.071 82.2256 239.169 71.5791 251.504 75.1672C254.606 76.0697 257.676 76.777 259.965 79.4452C262.255 82.1171 263.885 85.8512 264.463 90.1035C264.811 92.6688 266.985 101.379 264.692 113.39Z" fill="#2F2E41"/>
<path d="M256.727 300.967L251.221 301.103L248.152 275.322L256.277 275.122L256.727 300.967Z" fill="#FFB7B7"/>
<path d="M237.836 312.939C237.836 313.909 238.496 314.695 239.31 314.695H250.24C250.24 314.695 251.315 310.189 255.701 308.25L256.003 314.695H261.641L260.958 304.332C260.958 304.332 262.466 298.788 259.334 295.954C256.202 293.12 258.739 293.514 258.739 293.514L257.507 287.101L248.987 288.145L248.924 298.213L244.79 308.206L238.725 311.328C238.185 311.606 237.836 312.239 237.836 312.939Z" fill="#2F2E41"/>
<path d="M239.975 296.766L234.682 298.353L225.436 274.228L233.247 271.886L239.975 296.766Z" fill="#FFB7B7"/>
<path d="M224.617 313.341C224.853 314.279 225.683 314.865 226.471 314.649L237.043 311.759C237.043 311.759 236.986 307.116 240.755 304.081L242.617 310.235L248.071 308.744L244.887 298.901C244.887 298.901 244.996 293.14 241.276 291.227C237.556 289.314 240.106 289.024 240.106 289.024L237.353 283.146L229.366 286.41L231.757 296.165L230.191 306.924L225.085 311.548C224.631 311.96 224.447 312.664 224.617 313.341Z" fill="#2F2E41"/>
<path d="M253.351 162.926L256.815 164.129C262.232 174.555 264.528 188.399 264.224 205.093L258.07 280.074H248.003L240.635 196.542L227.644 227.895L237.149 280.074L227.644 281.084L208.499 226.826L221.832 163.765L253.351 162.926Z" fill="#2F2E41"/>
</g>
<defs>
<clipPath id="clip0_103_15720">
<rect width="315" height="315" fill="white"/>
</clipPath>
</defs>
</svg>
